# xmcd CD database file
#
# Track frame offsets:
#	150
#	25680
#	46482
#	48150
#	75715
#	98212
#	99724
#	125023
#	126738
#	150380
#	174023
#	175788
#	195808
#	197027
#	219775
#	223465
#	242885
#	244870
#	247875
#	257639
#	285431
#	286732
#	320568
#	333276
#
# Disc length: 4628 seconds
#
# Revision: 0
# Processed by: cddbd v1.5.1PL0 Copyright (c) Steve Scherf et al.
# Submitted via: CDex 1.51
#
DISCID=4f121218
DTITLE=Jean-Michel Jarre - Twelve Dreams of the Sun Disc 1
DYEAR=2000
DGENRE=New Age
TTITLE0=Bells
TTITLE1=Je Me Souviens
TTITLE2=Dream 1 - The Rock
TTITLE3=Miss Moon
TTITLE4=Oxygene 2
TTITLE5=Dream 2 - The House
TTITLE6=Chronologie 6
TTITLE7=Dream 3 - The Tree
TTITLE8=Equinoxe 7
TTITLE9=Magnetic Fields 2
TTITLE10=Dream 4 - The Boat
TTITLE11=Millions Of Stars
TTITLE12=Dream 5 - The Flesh
TTITLE13=Souvenir of China
TTITLE14=Oxygene 10 Intro
TTITLE15=Oxygene 10
TTITLE16=Dream 6 - The Voice
TTITLE17=Um Kalthoum Intro
TTITLE18=Um Kalthoum at 78 RPM
TTITLE19=Um Kalthoum Tribute
TTITLE20=Dream 7 - The Sky
TTITLE21=Hey Gagarin
TTITLE22=Gloria, Lonely Boy - Millennium
TTITLE23=Countdown to the Millennium
EXTD=YEAR: 2000
EXTT0=
EXTT1=
EXTT2=
EXTT3=
EXTT4=
EXTT5=
EXTT6=
EXTT7=
EXTT8=
EXTT9=
EXTT10=
EXTT11=
EXTT12=
EXTT13=
EXTT14=
EXTT15=
EXTT16=
EXTT17=
EXTT18=
EXTT19=
EXTT20=
EXTT21=
EXTT22=
EXTT23=
PLAYORDER=
